<?xml version="1.0" standalone="no"?>
<!DOCTYPE svg PUBLIC "-//W3C//DTD SVG 20010904//EN"
 "http://www.w3.org/TR/2001/REC-SVG-20010904/DTD/svg10.dtd">
<svg version="1.0" xmlns="http://www.w3.org/2000/svg"
 width="1280.000000pt" height="640.000000pt" viewBox="0 0 1280.000000 640.000000"
 preserveAspectRatio="xMidYMid meet">
<metadata>
Created by potrace 1.15, written by Peter Selinger 2001-2017
</metadata>
<g transform="translate(0.000000,640.000000) scale(0.100000,-0.100000)"
fill="#000000" stroke="none">
<path d="M6457 6183 c-8 -7 11 -54 29 -74 9 -10 30 -20 49 -23 35 -7 63 -30
46 -40 -5 -3 -16 -3 -24 0 -10 3 -20 -3 -27 -15 -14 -28 -63 -28 -81 0 -11 15
-34 23 -94 34 -69 11 -74 13 -35 14 72 2 121 13 127 28 3 8 -6 27 -21 41 l-27
27 -527 -1 c-832 -2 -1745 -40 -2132 -90 -441 -57 -772 -186 -984 -385 -70
-65 -215 -249 -278 -354 -20 -33 -46 -89 -58 -125 -38 -115 -205 -442 -247
-485 -21 -22 -72 -56 -113 -76 -75 -36 -179 -111 -300 -215 -76 -66 -115 -87
-190 -104 -254 -58 -434 -129 -500 -198 -55 -59 -62 -96 -70 -392 -4 -146 -10
-273 -15 -283 -4 -10 -24 -26 -44 -36 -20 -11 -44 -27 -53 -37 -25 -28 -58
-158 -65 -255 -6 -84 -5 -86 23 -118 24 -26 40 -33 94 -42 35 -5 75 -7 88 -4
23 6 24 4 19 -23 -7 -37 -1 -43 30 -31 33 12 74 -7 147 -70 34 -29 63 -46 66
-41 4 7 17 3 33 -10 33 -27 101 -50 143 -50 25 0 38 -7 50 -25 9 -14 23 -25
30 -25 17 0 17 3 2 51 -10 35 -9 42 16 78 21 31 29 56 36 127 9 84 28 132 57
141 21 7 26 -36 34 -292 4 -143 13 -291 19 -328 23 -143 98 -289 164 -321 35
-17 38 -17 69 1 66 39 111 182 124 391 6 106 6 107 -14 90 -26 -24 -43 -23
-43 2 0 16 -5 19 -24 14 -26 -6 -44 12 -28 28 6 6 25 13 44 17 18 4 34 14 36
23 3 18 -25 51 -38 43 -16 -10 -40 41 -47 93 -4 39 -2 58 12 78 17 26 17 26
36 8 10 -11 30 -62 44 -115 14 -53 37 -124 51 -158 34 -85 41 -190 20 -311
-32 -184 -86 -309 -167 -385 -73 -68 -111 -61 -209 39 -59 60 -69 64 -123 41
-25 -10 -72 -15 -154 -15 -110 0 -281 -15 -292 -26 -3 -2 4 -11 15 -18 18 -14
18 -15 -8 -25 -15 -6 -56 -18 -90 -26 -35 -9 -67 -20 -72 -25 -4 -4 23 -11 60
-15 38 -4 75 -11 82 -15 15 -8 -232 -20 -438 -21 -155 -1 -211 -12 -107 -22
65 -6 297 -16 858 -37 147 -5 280 -15 295 -20 16 -6 44 -9 62 -5 31 6 32 5 26
-19 -7 -30 15 -36 36 -11 14 17 104 21 145 5 23 -9 24 -12 13 -30 -17 -26 4
-43 44 -36 15 3 46 -1 70 -10 23 -8 109 -25 190 -38 82 -14 167 -33 189 -44
35 -17 39 -18 37 -3 -2 12 4 15 27 13 45 -5 54 -20 25 -42 -14 -10 -23 -21
-20 -23 3 -2 50 9 105 25 107 31 156 33 90 4 -22 -10 -160 -60 -306 -111 -146
-52 -396 -142 -555 -200 -433 -160 -990 -356 -1460 -515 -389 -132 -487 -169
-457 -170 45 -1 703 218 1433 478 685 244 838 298 972 343 196 65 550 170 555
165 3 -2 -13 -16 -34 -30 -42 -29 -45 -28 78 -26 51 1 90 -4 115 -15 22 -9
104 -25 184 -36 166 -22 194 -30 224 -62 17 -18 47 -28 136 -46 63 -12 131
-30 150 -41 77 -41 102 -50 196 -71 54 -11 134 -34 179 -51 137 -51 156 -53
221 -33 45 14 73 16 138 11 106 -9 253 -40 395 -83 166 -50 214 -59 462 -93
340 -47 671 -105 769 -136 25 -7 133 -25 241 -39 107 -13 213 -32 233 -40 21
-9 45 -14 53 -11 8 3 121 -2 251 -11 275 -19 1264 -24 1789 -9 308 9 312 9
390 -14 94 -27 138 -20 138 21 0 38 48 47 342 63 439 26 499 33 1004 125 373
68 358 68 506 25 28 -8 67 30 60 58 -5 18 -2 19 30 13 28 -5 40 -2 58 15 13
12 29 20 35 18 15 -5 -82 -199 -159 -316 -33 -50 -96 -162 -140 -249 -44 -88
-92 -172 -106 -187 -14 -15 -25 -29 -25 -32 0 -2 16 -4 35 -4 50 0 72 26 142
166 32 65 108 198 168 294 60 96 129 211 155 255 l47 80 124 0 c124 0 296 18
357 37 18 5 56 30 84 54 58 50 91 61 196 71 40 3 69 9 65 13 -4 5 -72 22 -151
40 -175 38 -281 72 -348 111 -61 34 -64 35 -64 10 0 -24 -18 -37 -32 -23 -14
14 -2 75 20 102 16 20 19 20 67 5 72 -21 75 -19 21 15 -43 28 -47 34 -41 58
10 42 218 369 384 607 43 61 100 150 127 200 61 111 115 170 169 183 22 6 107
13 188 16 136 6 187 15 187 34 -1 30 -23 36 -183 48 -223 16 -246 29 -266 153
-16 100 -26 94 -34 -21 -6 -80 -29 -126 -77 -150 -39 -20 -133 -24 -174 -8
-23 8 -25 7 -23 -13 1 -17 -3 -21 -18 -19 -37 6 -66 32 -60 52 5 15 2 17 -14
13 -24 -6 -100 62 -85 77 5 4 40 13 77 19 80 12 97 23 97 62 0 38 -23 49 -107
50 -78 1 -137 18 -141 42 -3 12 7 18 38 23 22 4 43 11 47 17 10 17 -28 37 -72
37 -23 0 -46 5 -53 12 -16 16 -14 94 3 143 8 22 15 66 15 97 0 96 47 192 102
210 7 3 11 23 10 51 -2 31 3 55 15 74 28 42 24 199 -7 277 -32 83 -99 149
-167 165 -94 23 -174 -18 -257 -131 -26 -35 -61 -72 -78 -82 -27 -17 -31 -17
-45 -3 -20 20 -9 49 64 169 29 47 53 90 53 96 0 5 -39 14 -87 20 -73 8 -52 9
117 5 113 -3 203 -3 200 -1 -9 9 -211 57 -305 73 -267 44 -993 90 -1090 68
-32 -7 -40 -14 -39 -31 1 -23 -20 -29 -46 -12 -12 8 -12 11 3 27 16 18 15 20
-28 31 -37 10 -52 21 -78 59 -74 109 -125 152 -252 213 -140 68 -250 106 -349
122 -52 8 -77 17 -94 34 -29 31 -47 30 -76 -1 -20 -22 -25 -23 -36 -11 -6 8
-9 24 -5 35 5 16 3 20 -9 15 -17 -7 -27 -37 -23 -68 3 -30 -22 -31 -33 -1 -15
38 -53 50 -275 81 -176 25 -238 28 -513 32 -298 3 -313 4 -307 22 8 25 -1 29
-90 40 -55 7 -126 5 -258 -5 -100 -8 -250 -15 -333 -15 -122 0 -165 -4 -214
-19 l-61 -19 -23 25 c-34 37 -134 46 -431 39 -246 -5 -401 -21 -360 -36 34
-13 185 -29 330 -35 300 -14 280 -45 -35 -56 -541 -18 -680 -20 -680 -12 0 5
17 14 38 20 l37 10 -41 2 c-82 2 -105 12 -120 47 -19 46 -56 46 -99 0 -29 -32
-35 -34 -120 -40 -205 -15 -659 -80 -722 -103 -12 -4 357 -9 820 -9 733 -1
926 -5 1487 -28 725 -30 1260 -47 1287 -40 36 9 185 -14 202 -31 15 -15 15
-17 -3 -30 -31 -24 -116 -27 -256 -11 -415 48 -1515 93 -2460 102 -602 6 -660
4 -853 -23 -23 -3 -43 -1 -50 6 -15 15 -98 14 -190 -4 -108 -21 -115 -20 -91
6 l19 22 -92 -7 c-62 -5 -93 -4 -93 3 0 23 27 30 310 81 168 31 356 77 347 86
-5 6 -167 -18 -494 -71 -474 -78 -484 -79 -1003 -79 -256 -1 -482 3 -502 7
-24 5 -38 14 -38 23 0 13 -3 13 -22 0 -25 -18 -95 -21 -118 -6 -12 7 -8 12 20
22 l35 12 -30 7 c-16 4 -66 8 -110 9 -79 3 -79 3 -30 11 28 4 232 15 455 24
485 19 572 27 607 55 14 11 31 20 37 20 6 0 27 13 46 29 54 44 97 63 204 91
109 27 137 50 63 48 -31 0 -55 6 -75 21 -37 26 -49 26 -57 1 -7 -21 -46 -36
-65 -25 -6 4 -9 14 -6 22 4 9 -1 17 -14 20 -11 3 -23 16 -26 30 -8 31 2 152
22 253 7 41 20 118 28 170 l14 94 -27 58 c-22 49 -32 60 -61 69 -20 7 -167 14
-351 18 -291 5 -319 8 -338 25 -17 16 -30 17 -85 12 -39 -5 -66 -4 -70 3 -4 5
-2 12 3 15 19 12 286 36 621 56 589 35 1310 96 1375 117 16 5 10 9 -28 20 -26
7 -47 18 -47 23 0 9 59 29 95 31 11 1 0 5 -25 10 -66 11 -496 10 -635 -2 -222
-19 -318 -49 -345 -106 -8 -18 -17 -33 -20 -33 -3 0 -14 19 -25 43 -18 38 -23
42 -55 41 -87 -2 -349 -47 -407 -70 -80 -32 -154 -44 -279 -45 -111 -1 -144 5
-144 26 0 41 133 71 525 119 545 68 1102 103 1746 113 423 6 500 3 480 -21
-13 -15 -4 -26 21 -26 33 0 19 -19 -19 -26 -106 -18 -190 -37 -208 -47 -17
-10 -13 -13 35 -18 86 -11 274 -10 535 2 254 12 338 9 850 -32 268 -21 379
-34 435 -51 60 -18 54 -26 -17 -22 -747 40 -1250 35 -2408 -22 -642 -31 -758
-45 -838 -98 -53 -36 -49 -72 34 -336 55 -175 136 -403 170 -478 36 -80 61
-92 192 -92 134 0 529 59 542 81 3 4 -4 13 -15 19 -25 14 -312 14 -400 0 -155
-24 -147 -24 -154 -3 -11 35 30 143 138 360 l105 212 -45 95 c-24 52 -45 111
-47 132 l-2 38 50 9 c63 10 352 1 392 -14 24 -8 32 -18 37 -42 4 -19 33 -65
71 -111 121 -144 233 -324 270 -435 18 -51 27 -66 41 -64 24 2 34 -14 34 -53
0 -37 13 -44 76 -44 39 0 45 3 40 18 -20 66 -86 365 -86 389 0 39 25 60 140
117 52 26 112 61 134 78 33 27 52 33 144 45 63 8 113 19 121 28 22 22 -2 92
-40 113 -16 10 -29 20 -29 25 0 4 30 7 68 7 58 -1 65 -2 50 -14 -22 -17 -23
-36 -1 -80 24 -51 54 -60 183 -51 88 5 111 4 114 -7 2 -7 24 -126 49 -263 24
-138 50 -264 58 -280 12 -25 20 -30 46 -27 22 2 38 -3 53 -18 18 -18 31 -20
93 -18 l72 3 0 57 c0 31 3 59 7 63 48 49 288 -17 328 -90 14 -25 24 -31 58
-33 23 -2 42 1 42 6 0 11 -77 77 -120 103 -44 28 -133 56 -210 68 -41 6 -83
14 -93 17 -24 8 -43 48 -68 150 -29 117 -57 172 -127 242 -63 65 -103 89 -165
101 -34 6 -38 10 -22 15 38 14 50 24 47 40 -4 23 6 23 248 6 80 -5 190 -10
246 -10 116 0 160 -11 168 -44 5 -22 62 -56 92 -56 30 0 71 -53 78 -103 16
-105 60 -247 77 -247 14 0 11 66 -8 136 -9 35 -14 66 -10 70 10 11 32 -13 51
-55 10 -21 29 -44 42 -50 13 -6 24 -19 24 -28 0 -18 171 -315 209 -365 12 -14
21 -29 21 -32 0 -3 -44 -6 -97 -7 -54 0 -93 -2 -88 -4 6 -2 29 -9 53 -15 32
-8 42 -16 42 -31 0 -33 -45 -42 -265 -48 -136 -4 -194 -9 -165 -13 52 -8 518
-29 600 -27 l55 2 -50 7 c-27 5 -72 9 -99 9 -44 1 -47 3 -35 18 20 23 85 50
144 58 28 4 56 11 62 17 18 14 5 30 -18 23 -16 -5 -19 -1 -19 22 0 29 -10 50
-67 145 -18 29 -33 59 -33 67 0 25 37 -17 147 -167 58 -79 107 -141 110 -138
2 2 -44 82 -103 178 -314 508 -394 638 -418 685 -29 58 -58 82 -166 141 -252
137 -466 182 -1016 217 -133 8 -253 19 -267 24 -14 5 -27 7 -30 4z m351 -140
c-15 -2 -42 -2 -60 0 -18 2 -6 4 27 4 33 0 48 -2 33 -4z m212 -23 c11 -7 3
-10 -28 -10 -26 0 -41 4 -37 10 8 13 45 13 65 0z m943 -359 c24 -36 26 -51 6
-51 -17 0 -39 33 -39 61 0 16 2 29 4 29 2 0 15 -18 29 -39z m108 -181 c12 -40
9 -80 -6 -82 -19 -2 -46 61 -51 119 l-5 58 25 -30 c15 -16 31 -46 37 -65z
m-3192 11 c38 -55 60 -71 96 -71 48 0 42 19 -14 46 -43 21 -44 21 -17 28 24 6
78 1 113 -9 19 -6 -126 -321 -204 -443 -26 -42 -38 -53 -56 -50 -19 3 -33 34
-109 258 -48 140 -88 260 -88 265 0 6 47 8 131 5 124 -5 132 -6 148 -29z
m-684 -209 c-15 -127 -41 -271 -50 -281 -16 -15 -1 145 25 269 16 80 30 147
30 149 0 2 2 2 5 -1 3 -3 -1 -64 -10 -136z m-1575 115 c0 -7 -11 -28 -25 -47
l-25 -34 0 35 c0 36 14 59 37 59 7 0 13 -6 13 -13z m5541 -39 c11 -22 18 -42
16 -45 -7 -6 -43 47 -52 76 -11 36 12 17 36 -31z m-4806 -11 c0 -15 -4 -28 -9
-29 -14 -5 -30 28 -23 46 10 26 32 14 32 -17z m374 -109 c-1 -63 -2 -68 -10
-38 -8 32 -3 110 7 110 2 0 4 -33 3 -72z m371 37 c0 -14 -4 -25 -10 -25 -5 0
-10 11 -10 25 0 14 5 25 10 25 6 0 10 -11 10 -25z m-1586 -297 c-33 -66 -69
-91 -54 -37 13 44 64 109 68 87 2 -9 -4 -32 -14 -50z m1476 52 c-8 -5 -24 -10
-35 -10 -11 0 -27 5 -35 10 -11 7 -1 10 35 10 36 0 46 -3 35 -10z m-1692 -319
c4 -42 1 -52 -13 -57 -37 -15 -57 52 -35 112 10 25 12 26 27 11 9 -8 18 -38
21 -66z m3577 -12 c8 -25 3 -31 -19 -23 -20 8 -21 44 -2 44 8 0 18 -9 21 -21z
m-118 -16 c-20 -2 -52 -2 -70 0 -17 2 0 4 38 4 39 0 53 -2 32 -4z m3225 -50
c15 -15 28 -33 28 -40 0 -18 -113 -73 -149 -73 -41 0 -156 51 -139 61 7 5 56
9 108 9 138 0 161 10 123 52 -25 28 -2 21 29 -9z m-6635 -44 c6 -6 32 -16 59
-24 l49 -13 -107 -1 c-60 -1 -108 3 -108 8 0 9 65 39 86 40 5 1 15 -4 21 -10z
m6938 -9 c4 -6 -8 -10 -30 -10 -22 0 -34 4 -30 10 3 6 17 10 30 10 13 0 27 -4
30 -10z m-5976 -31 c119 -19 105 -31 -29 -26 -127 5 -164 12 -154 28 7 12 104
11 183 -2z m2194 -1 c-15 -7 -30 -7 -50 0 -26 10 -24 10 22 11 42 0 46 -2 28
-11z m3706 -14 c42 -9 40 -24 -4 -24 -23 0 -41 -8 -55 -22 -17 -19 -34 -23
-93 -26 -76 -4 -131 10 -124 31 2 6 15 11 28 9 13 -1 51 7 84 17 63 21 112 25
164 15z m400 -19 c8 -8 13 -17 10 -20 -8 -7 -89 27 -89 38 0 14 62 0 79 -18z
m-152 -66 c34 -12 83 -58 83 -76 0 -38 -155 -76 -290 -71 -70 2 -85 6 -88 20
-6 33 39 49 167 55 67 3 121 10 121 14 0 5 -13 18 -30 30 -45 34 -23 51 37 28z
m-602 -8 c-14 -12 -103 -22 -109 -12 -10 15 7 21 63 21 32 0 51 -4 46 -9z
m-3876 -82 c57 -20 75 -94 32 -133 -23 -21 -119 -41 -153 -33 -57 15 -73 60
-42 118 26 51 96 71 163 48z m336 -19 c48 -11 65 -32 65 -79 l0 -36 -15 30
c-24 45 -43 55 -110 55 -137 0 -119 -76 23 -100 43 -7 40 -8 -34 -9 -95 -1
-118 10 -116 59 1 40 16 57 68 75 46 17 66 18 119 5z m383 -17 c69 -33 78 -89
19 -114 -34 -15 -164 -19 -209 -6 -59 16 -37 94 35 128 47 22 98 19 155 -8z
m-3082 -76 c35 -30 26 -43 -37 -56 -83 -18 -114 -15 -127 14 -12 27 -46 44
-90 46 -59 3 44 16 135 18 83 1 95 -1 119 -22z m2895 -158 c-9 -23 -10 -22
-10 11 -1 23 2 31 9 24 7 -7 7 -19 1 -35z m311 29 c-8 -8 -17 -8 -34 0 -22 10
-21 11 12 11 26 1 31 -2 22 -11z m4586 -28 c130 -35 149 -50 65 -50 -86 0
-253 53 -253 81 0 14 53 5 188 -31z m-5522 7 c18 -18 -21 -30 -108 -35 -55 -2
-110 0 -135 7 -45 12 -55 26 -25 34 27 8 259 3 268 -6z m2444 -18 c295 -19
498 -55 695 -121 120 -40 150 -64 108 -87 -34 -17 -314 -71 -373 -71 -45 0
-74 7 -112 26 -30 15 -47 29 -41 35 5 5 55 20 112 34 219 54 225 77 34 109
-193 33 -476 60 -798 76 -336 16 -343 18 -45 13 151 -2 340 -8 420 -14z m3711
-26 c6 -16 29 -47 51 -70 23 -24 39 -46 35 -49 -4 -4 -25 1 -48 11 -33 15 -44
16 -60 7 -10 -7 -21 -12 -24 -12 -7 0 -6 105 1 124 10 25 33 19 45 -11z
m-6567 7 c-12 -12 -208 -30 -328 -30 -116 0 -102 15 24 28 134 13 316 14 304
2z m2331 -15 c6 -2 -39 -3 -100 -3 -77 1 -95 3 -60 7 47 6 138 3 160 -4z
m2925 -36 c47 -21 80 -46 80 -61 0 -4 -46 -8 -102 -7 -57 0 -111 -2 -120 -6
-21 -8 -51 -72 -44 -92 9 -23 30 -10 36 23 6 28 6 29 18 7 28 -51 10 -93 -56
-128 l-47 -25 41 6 c30 4 49 1 67 -10 19 -13 38 -16 78 -11 50 6 52 5 35 -9
-44 -36 -167 -31 -213 8 -24 21 -27 32 -33 117 -3 52 -9 100 -14 107 -11 18
45 67 97 85 59 22 124 20 177 -4z m-4552 5 c28 -4 52 -11 52 -15 0 -5 -159 -8
-352 -7 l-353 1 165 12 c191 14 412 18 488 9z m-1120 -21 c-21 -2 -57 -2 -80
0 -24 2 -7 4 37 4 44 0 63 -2 43 -4z m2450 0 c-32 -2 -84 -2 -115 0 -32 2 -6
3 57 3 63 0 89 -1 58 -3z m5241 -28 c29 -7 64 -24 78 -36 58 -55 71 -245 23
-339 -63 -124 -139 -165 -227 -124 -45 22 -122 100 -139 141 -15 34 -17 150
-5 193 l7 25 12 -22 c7 -12 12 -35 12 -51 0 -23 5 -31 25 -36 14 -4 36 -4 50
0 l25 6 -33 22 c-42 29 -45 57 -11 128 26 54 26 59 11 76 -9 10 -17 22 -17 25
0 13 134 7 189 -8z m-8973 -40 c18 -14 17 -14 -12 -9 -26 5 -32 2 -37 -15 -4
-18 -13 -21 -56 -21 -28 0 -51 4 -51 9 0 11 89 50 116 51 11 0 29 -7 40 -15z
m3514 -5 c768 -21 787 -22 852 -54 31 -16 71 -44 89 -62 37 -38 24 -45 -22
-12 -24 18 -43 22 -102 23 -124 0 -235 -68 -292 -181 -26 -52 -71 -94 -101
-94 -21 0 -23 28 -8 81 19 64 54 121 106 175 l40 41 -29 7 c-63 13 -550 25
-1303 30 -836 7 -1150 14 -1150 27 0 27 315 38 975 33 303 -2 728 -8 945 -14z
m-1987 -6 c10 -11 -5 -34 -22 -34 -9 0 -27 9 -41 20 l-25 20 41 0 c22 0 43 -3
47 -6z m5375 -75 c3 -29 -12 -54 -27 -45 -12 8 -15 59 -4 70 12 12 28 0 31
-25z m-1408 13 c0 -16 -35 -41 -77 -56 -109 -38 -400 -72 -391 -46 5 16 18 20
238 70 166 39 230 47 230 32z m2900 -2 c24 -15 3 -24 -66 -28 -71 -5 -111 12
-58 23 16 4 34 8 39 10 21 7 71 4 85 -5z m-4780 -40 c0 -14 -55 -40 -85 -40
-34 0 -33 26 3 38 36 14 82 15 82 2z m1224 0 c14 -5 26 -17 26 -26 0 -14 -19
-15 -70 0 -3 0 -7 -3 -8 -9 -8 -22 -25 -33 -60 -39 -20 -4 -50 -9 -67 -12 -28
-6 -27 -4 19 32 42 32 102 62 128 64 4 0 18 -4 32 -10z m-480 -35 c64 -19 146
-69 146 -90 0 -8 6 -15 14 -15 7 0 16 -10 20 -22 7 -29 8 -306 0 -333 -3 -12
-17 -26 -32 -33 -38 -16 -131 -101 -111 -102 8 0 35 13 60 28 69 44 77 46 39
12 -71 -65 -85 -70 -148 -53 -137 35 -268 124 -255 172 3 12 -3 31 -15 46 -11
14 -18 34 -15 44 7 28 -12 57 -49 72 -32 13 -32 13 -8 19 15 3 33 21 45 43
l21 36 10 -32 c8 -27 14 -32 44 -34 35 -3 35 -3 13 13 -26 19 -30 34 -8 34 8
0 15 9 15 21 0 27 16 55 57 104 18 21 33 46 32 55 -1 8 -1 18 0 23 2 12 70 8
125 -8z m2638 -33 c10 -8 15 -19 12 -24 -7 -10 -64 39 -64 55 0 9 13 1 52 -31z
m-2031 2 c16 -20 -2 -34 -46 -34 -16 0 -36 4 -44 9 -23 15 5 41 44 41 18 0 38
-7 46 -16z m-776 -14 c-19 -21 -55 -27 -55 -10 0 12 31 29 54 30 18 0 18 -1 1
-20z m4462 -88 c-6 -80 -14 -97 -37 -82 -20 12 -19 84 3 133 26 60 41 38 34
-51z m-3033 29 c9 -13 -15 -20 -117 -31 -51 -6 -120 -18 -154 -27 -63 -16
-197 -13 -216 6 -8 8 158 37 288 51 103 11 193 11 199 1z m-763 -21 c32 -14
66 -20 127 -20 45 0 82 -4 82 -9 0 -14 -100 -35 -164 -33 -56 1 -151 25 -170
43 -14 13 23 38 55 39 15 0 46 -9 70 -20z m-251 -190 c0 -16 -4 -30 -10 -30
-11 0 -14 43 -3 53 11 12 13 8 13 -23z m-617 -17 c20 -23 33 -73 19 -73 -11 0
-71 47 -84 64 -20 29 40 36 65 9z m3782 7 c173 -12 320 -34 387 -60 26 -10 77
-39 112 -64 71 -50 196 -169 196 -186 0 -21 -31 -8 -84 34 -30 25 -82 59 -116
76 -75 38 -191 66 -216 52 -13 -7 -7 -11 28 -16 43 -6 89 -38 71 -49 -4 -2
-42 1 -83 9 -41 7 -91 13 -111 14 -27 0 -41 6 -52 23 l-14 22 -319 0 c-209 -1
-395 -7 -539 -18 -121 -10 -332 -27 -470 -38 -325 -25 -575 -49 -598 -55 -10
-3 -16 -12 -13 -19 4 -11 -12 -13 -82 -8 -71 4 -118 -1 -256 -26 -92 -17 -176
-31 -185 -31 -41 0 -121 -33 -186 -76 -38 -25 -95 -58 -125 -74 -72 -37 -102
-70 -140 -154 -17 -38 -38 -75 -47 -81 -21 -16 -11 -84 16 -106 28 -23 180
-34 262 -19 115 21 175 56 164 97 -4 16 0 25 10 29 10 4 15 20 15 50 0 32 5
47 20 57 20 14 19 15 -17 21 -21 3 -53 6 -71 6 -41 0 -39 20 4 32 49 13 218
-17 348 -62 33 -11 62 -18 64 -15 3 3 -12 41 -32 84 -41 87 -44 124 -10 129
36 5 80 -43 113 -122 37 -88 74 -237 62 -249 -4 -4 -35 13 -67 38 -138 107
-165 114 -250 65 -49 -27 -94 -72 -94 -91 0 -17 19 -9 67 28 37 29 44 31 30
12 -40 -56 -43 -70 -18 -90 l23 -19 -26 0 c-15 0 -43 7 -63 15 -59 25 -101 13
-73 -20 14 -17 -1 -21 -107 -29 -54 -4 -93 -14 -150 -40 -102 -45 -197 -55
-623 -63 -179 -3 -331 -9 -339 -13 -11 -6 -9 -11 10 -21 20 -11 112 -13 502
-11 264 2 477 -1 477 -5 0 -5 -5 -14 -11 -20 -18 -18 -7 -87 14 -91 12 -3 20
4 24 17 5 19 7 19 33 6 43 -22 88 -81 95 -122 3 -21 10 -45 15 -54 7 -13 4
-18 -13 -22 -12 -3 -41 -13 -65 -21 -30 -12 -107 -19 -265 -26 -241 -11 -276
-15 -292 -37 -9 -12 -27 -7 -111 27 -115 46 -155 50 -176 19 -11 -17 -29 -23
-101 -30 -48 -5 -97 -14 -107 -19 -23 -12 -26 -52 -6 -69 11 -9 18 -6 33 14
11 16 34 30 58 35 45 11 185 11 230 1 30 -7 30 -7 -12 -14 -22 -4 -92 -23
-155 -43 -71 -22 -123 -33 -141 -30 -18 4 -38 -1 -54 -11 -20 -13 -29 -14 -44
-5 -11 7 -53 19 -94 27 -95 18 -173 51 -157 67 6 6 66 14 134 18 68 5 136 11
151 15 33 9 31 27 -4 35 -16 3 -32 21 -48 50 l-23 45 6 -47 c5 -40 3 -49 -14
-58 -24 -13 -127 -13 -135 0 -4 6 8 10 29 10 34 0 76 27 76 49 0 49 -15 74
-56 93 -63 28 -157 34 -223 14 -49 -14 -56 -14 -87 0 -38 18 -40 18 -108 -31
-26 -19 -59 -35 -73 -35 -39 0 -77 48 -107 136 -50 142 -93 168 -74 44 10 -66
-2 -150 -22 -150 -14 0 -47 52 -59 95 -15 56 -14 119 4 162 14 32 18 35 44 30
29 -6 30 -4 38 36 l9 42 554 1 c670 1 923 18 964 63 13 14 59 201 52 208 -1 2
-19 -20 -40 -47 -50 -65 -60 -71 -51 -29 12 53 89 205 136 265 151 195 454
280 1304 363 633 63 1171 84 1520 61z m-9551 -106 c15 -38 -8 -204 -26 -186
-12 12 -22 143 -14 176 7 29 30 35 40 10z m5787 -34 c23 -13 25 -48 4 -56 -21
-9 -45 14 -45 42 0 26 11 30 41 14z m3910 -152 c23 -26 113 -208 123 -252 6
-25 1 -35 -29 -66 -43 -45 -45 -77 -3 -72 33 4 40 -9 63 -113 10 -44 24 -97
31 -119 19 -53 35 -161 28 -181 -6 -15 -8 -15 -25 1 -18 16 -19 16 -30 -15 -6
-18 -13 -30 -16 -28 -2 3 -11 49 -19 103 -8 54 -17 109 -21 123 -6 23 -7 24
-14 6 -4 -11 -8 -47 -9 -80 -1 -52 -3 -57 -12 -35 -9 20 -72 155 -86 182 -2 4
18 5 44 1 39 -5 49 -3 60 12 19 26 18 30 -10 43 -19 8 -27 23 -34 64 -6 29
-18 93 -27 143 -9 49 -29 121 -46 160 -31 75 -36 114 -17 133 17 17 24 15 49
-10z m-450 -25 c47 -51 64 -80 89 -152 34 -101 22 -185 -24 -168 -46 18 -149
321 -119 350 11 12 18 8 54 -30z m242 -3 c61 -66 90 -135 91 -212 1 -60 -2
-70 -26 -95 -31 -32 -35 -43 -14 -43 23 0 66 -40 81 -77 9 -20 19 -72 24 -115
7 -60 14 -85 31 -103 17 -18 20 -30 15 -55 -5 -23 -2 -36 11 -51 17 -18 16
-20 -6 -44 -26 -28 -50 -33 -50 -11 0 8 -10 16 -22 18 -19 3 -23 13 -34 74
-10 63 -28 114 -38 114 -2 0 -2 -26 0 -57 5 -59 -5 -91 -25 -79 -6 4 -11 18
-11 32 0 14 -11 36 -25 50 -14 14 -23 30 -19 35 3 5 -1 21 -10 34 -23 36 -20
45 17 45 46 0 56 14 46 60 -5 22 -15 85 -24 142 -15 110 -28 158 -69 253 -25
59 -33 105 -19 118 15 16 43 4 76 -33z m-450 -11 c46 -53 90 -184 85 -254 -3
-43 -7 -52 -30 -62 -31 -16 -58 -8 -58 17 0 10 -18 78 -40 151 -44 145 -46
159 -28 177 20 20 35 14 71 -29z m-7185 5 c2 -11 -4 -27 -13 -34 -22 -18 -39
1 -31 35 8 32 39 31 44 -1z m6916 -5 c58 -50 116 -196 116 -291 0 -35 -2 -38
-29 -38 -17 0 -33 -4 -36 -10 -12 -19 -25 -10 -25 18 0 32 -21 97 -75 232 -20
50 -34 98 -31 106 9 23 43 16 80 -17z m-289 -31 c37 -44 74 -128 91 -208 24
-115 16 -140 -41 -126 -18 5 -26 15 -31 44 -4 20 -29 90 -56 155 -26 65 -48
131 -48 146 0 52 37 47 85 -11z m1602 -12 c-1 -32 4 -53 21 -75 28 -38 15 -41
-20 -3 -49 52 -59 89 -32 116 23 24 33 11 31 -38z m-1915 17 c14 -16 35 -47
47 -71 47 -94 81 -299 47 -286 -17 7 -50 -36 -37 -49 5 -5 20 -14 32 -21 36
-18 68 -93 78 -180 10 -86 23 -110 41 -77 8 15 8 32 1 58 -6 20 -9 39 -7 41 3
2 27 -18 55 -45 l50 -48 -5 -60 c-8 -82 -7 -82 -59 -106 -25 -12 -45 -27 -45
-34 0 -35 -79 -24 -99 14 -6 11 -11 45 -11 76 0 31 -12 111 -26 178 -25 122
-33 166 -54 307 -6 41 -29 119 -50 174 -43 105 -47 125 -28 144 19 19 42 14
70 -15z m-312 -70 c57 -57 88 -143 97 -267 6 -75 5 -78 -14 -72 -13 4 -25 1
-33 -9 -7 -9 -11 -16 -9 -18 2 -1 18 -9 34 -17 43 -21 73 -90 96 -217 22 -123
36 -173 50 -173 13 0 11 65 -6 145 -8 38 -15 73 -15 77 0 20 36 5 66 -27 41
-44 59 -101 43 -142 -23 -61 -125 -137 -176 -131 l-28 3 -6 110 c-3 69 -12
124 -22 149 -25 56 -44 136 -62 256 -18 121 -32 171 -74 268 -17 39 -31 80
-31 91 0 36 39 25 90 -26z m2532 37 c21 -6 45 -18 55 -28 16 -16 13 -17 -51
-20 -65 -3 -69 -4 -117 -51 -49 -47 -63 -81 -34 -81 22 0 18 -37 -4 -50 -34
-18 -44 -12 -37 20 4 22 2 30 -8 30 -16 0 -22 24 -32 123 l-6 67 98 0 c55 0
116 -5 136 -10z m-8200 -62 c-8 -8 -17 -8 -34 0 -22 10 -21 11 12 11 26 1 31
-2 22 -11z m683 -38 c105 -5 202 -10 217 -10 21 0 26 -4 21 -17 -6 -15 3 -16
101 -9 59 4 121 9 139 12 50 8 15 -9 -88 -44 l-90 -31 -155 25 c-85 13 -216
36 -290 50 -149 28 -203 48 -105 39 33 -3 146 -10 250 -15z m1971 -16 c28 -14
70 -42 94 -63 55 -47 50 -66 -19 -76 -90 -12 -157 -84 -216 -232 -135 -335
-39 -940 179 -1141 54 -49 82 -62 138 -62 129 0 220 150 267 439 26 153 26
154 65 144 17 -4 48 -7 69 -6 l39 1 -25 -26 c-33 -37 -45 -76 -62 -222 -24
-206 -65 -338 -147 -466 -125 -200 -300 -212 -462 -33 -169 187 -270 566 -269
1009 1 298 38 481 129 647 64 115 120 137 220 87z m5235 -24 c10 -32 10 -43 0
-53 -17 -17 -31 8 -31 56 0 49 16 47 31 -3z m-6546 -30 c-4 -12 -1 -28 7 -37
12 -14 5 -15 -67 -11 -44 2 -93 12 -109 20 l-30 16 63 7 c34 4 75 11 89 15 45
14 54 12 47 -10z m198 -10 c35 -12 72 -32 86 -47 22 -26 23 -27 5 -41 -13 -9
-33 -12 -63 -8 -51 7 -69 19 -73 49 -2 17 -12 23 -41 28 -42 7 -52 13 -42 28
10 17 59 13 128 -9z m6817 -90 c-17 -39 -29 -79 -25 -89 4 -15 -3 -22 -35 -35
-22 -8 -59 -18 -82 -22 l-43 -5 25 21 c14 12 41 31 60 43 27 18 39 35 52 77
17 53 68 115 76 92 2 -6 -11 -43 -28 -82z m-9740 -42 c0 -24 -38 -98 -49 -98
-13 0 -24 101 -16 140 l7 32 29 -28 c16 -15 29 -36 29 -46z m8524 22 c36 -13
61 -69 91 -206 15 -65 32 -141 38 -168 11 -47 11 -49 -16 -72 -58 -50 -81 -27
-92 88 -4 38 -25 121 -51 195 -24 70 -44 135 -44 144 0 27 32 35 74 19z m812
-67 c0 -38 7 -87 14 -110 13 -38 12 -44 -4 -62 -18 -20 -94 -36 -125 -26 -27
8 -31 37 -15 103 23 98 22 102 -36 102 -57 0 -62 8 -21 33 36 21 58 21 104 2
38 -16 62 -12 71 11 10 25 12 15 12 -53z m-1036 37 c11 -6 36 -42 57 -82 24
-46 47 -77 67 -87 58 -31 66 -46 66 -117 0 -81 -13 -81 -55 -1 -16 31 -33 57
-37 57 -13 0 -9 -44 7 -90 8 -23 15 -55 15 -71 0 -28 -30 -69 -50 -69 -5 0
-10 9 -10 20 0 22 -15 27 -23 8 -4 -10 -8 -10 -15 1 -16 22 -31 115 -42 256
-6 71 -13 131 -15 134 -3 2 -11 -2 -20 -9 -13 -11 -15 -8 -15 17 0 16 3 33 7
36 10 10 42 8 63 -3z m-570 -35 c18 -9 40 -36 56 -66 31 -61 64 -187 64 -242
0 -34 6 -46 40 -77 59 -55 53 -74 -15 -46 -40 17 -55 8 -75 -43 -12 -31 -14
-32 -27 -15 -17 23 -17 68 1 83 12 10 10 22 -10 79 -28 82 -84 296 -84 323 0
23 11 24 50 4z m340 -14 c31 -22 49 -71 49 -133 1 -55 13 -66 46 -44 13 9 38
16 55 16 26 0 33 -6 46 -35 19 -47 18 -88 -5 -116 -21 -26 -19 -27 -36 26 -2
8 -16 15 -30 15 -14 0 -25 5 -25 10 0 6 -4 10 -10 10 -16 0 -12 -87 5 -104 21
-21 19 -32 -12 -56 -18 -14 -38 -20 -62 -18 l-36 3 -12 119 c-7 65 -24 160
-38 211 -33 124 -33 129 8 121 17 -3 43 -14 57 -25z m-4026 -58 c-37 -43 -71
-82 -75 -87 -6 -6 -9 -3 -9 7 0 17 126 157 142 157 5 0 -21 -35 -58 -77z
m5986 38 c0 -11 -33 -24 -155 -61 -138 -41 -185 -60 -185 -72 0 -19 98 1 245
49 77 25 145 47 151 50 5 2 21 -18 33 -45 29 -61 19 -85 -46 -114 -36 -16 -78
-21 -203 -27 -102 -5 -164 -12 -174 -20 -12 -10 -17 -8 -31 13 -20 30 -45 110
-45 143 0 18 9 28 33 38 76 31 377 68 377 46z m-9981 -106 c21 -19 44 -35 50
-35 7 0 11 -8 10 -17 -4 -46 3 -74 25 -99 23 -27 24 -28 50 -11 31 21 46 15
46 -16 0 -34 -17 -52 -47 -52 -23 0 -28 -4 -28 -25 0 -18 5 -25 20 -25 11 0
20 -7 20 -15 0 -15 -15 -17 -65 -9 -21 3 -25 0 -22 -18 5 -37 -27 -28 -73 20
-33 35 -47 62 -68 128 -37 121 -41 156 -22 185 22 34 58 31 104 -11z m6789 -1
c31 -21 45 -51 53 -112 8 -60 12 -67 29 -57 8 5 10 22 7 46 -3 22 -2 39 3 39
4 0 24 -11 44 -25 107 -73 117 -87 87 -119 -14 -14 -22 -42 -26 -81 -4 -33 -9
-71 -11 -85 -5 -22 -7 -23 -15 -7 -13 23 -20 22 -63 -12 -21 -17 -43 -28 -51
-25 -8 4 -15 -5 -20 -25 -4 -17 -11 -31 -16 -31 -5 0 -9 2 -9 4 0 3 -9 81 -20
174 -27 235 -36 252 -99 193 -38 -35 -39 -61 -8 -139 13 -31 27 -71 30 -87 l7
-30 -22 30 -23 29 -5 -29 c-4 -23 -11 -30 -29 -29 -20 1 -22 -3 -17 -30 3 -17
2 -36 -2 -43 -12 -19 -60 -33 -139 -40 l-74 -6 7 63 c5 46 4 61 -5 56 -15 -9
-34 41 -26 71 7 28 59 39 118 26 39 -8 42 -11 40 -38 l-2 -30 21 25 c29 36 70
119 63 130 -4 6 -26 10 -51 10 -24 0 -44 5 -44 10 0 6 5 10 11 10 5 0 35 12
66 27 58 29 89 63 79 88 -19 49 61 85 112 49z m3598 5 c32 -6 63 -14 67 -18
13 -12 -629 -976 -690 -1038 -18 -18 -33 -37 -33 -43 0 -16 -64 -40 -106 -40
-27 0 -37 5 -41 20 -7 27 -27 25 -48 -6 -15 -23 -21 -25 -58 -19 -65 10 -228
54 -261 70 -41 21 -49 19 -74 -15 -27 -35 -48 -41 -31 -7 22 41 73 98 105 117
17 11 49 20 70 20 l39 1 -27 16 c-39 25 -41 38 -17 110 24 72 81 150 133 182
57 36 121 115 156 194 l33 75 183 36 c326 65 374 93 425 244 21 63 64 112 98
112 9 0 44 -5 77 -11z m-1006 -24 c15 -18 50 -19 85 -3 40 18 68 -2 95 -66 29
-74 22 -101 -33 -126 -23 -11 -61 -20 -83 -20 l-41 0 -13 76 c-6 43 -18 94
-26 115 -13 40 -6 51 16 24z m-3235 -30 c0 -15 -8 -21 -32 -23 -37 -4 -41 3
-16 30 21 23 48 19 48 -7z m485 -3 c0 -8 -71 -52 -84 -52 -17 0 -2 23 27 40
34 21 57 26 57 12z m-397 -32 c17 -19 37 -30 54 -30 14 0 35 -7 45 -17 36 -32
13 -133 -31 -133 -40 0 -111 118 -111 185 0 33 11 32 43 -5z m1633 5 c29 -45
43 -97 32 -121 -12 -26 -34 -38 -44 -23 -11 18 -34 113 -34 142 0 35 24 36 46
2z m-3973 -88 c-5 -82 -3 -97 16 -134 11 -23 21 -53 21 -67 0 -17 11 -33 30
-48 17 -12 30 -26 30 -30 0 -5 -16 -30 -35 -55 -39 -51 -52 -101 -36 -132 14
-24 39 -28 47 -6 9 22 24 18 24 -5 0 -10 9 -24 20 -30 37 -20 80 23 64 64 -8
22 2 20 26 -4 25 -25 35 -25 61 1 25 25 13 44 -34 55 -40 8 -57 21 -57 45 0
14 7 19 25 19 31 0 34 29 5 37 -47 12 -4 43 60 43 130 0 239 -155 185 -260
-11 -22 -28 -33 -61 -43 l-47 -13 32 -13 c38 -16 40 -28 6 -37 -29 -7 -48 6
-64 44 -13 31 -58 62 -89 62 -60 0 -42 -89 36 -172 32 -35 87 -39 97 -9 9 28
45 38 61 16 18 -25 0 -67 -47 -110 -58 -52 -84 -60 -137 -40 -79 31 -135 94
-160 183 -16 53 -37 57 -27 5 9 -50 51 -125 125 -220 33 -43 60 -81 60 -85 0
-42 -125 71 -175 157 -31 52 -69 204 -86 340 -18 154 -16 407 5 478 9 31 19
57 21 57 2 0 2 -42 -2 -93z m5397 48 c15 -18 5 -35 -20 -35 -10 0 -22 5 -25
10 -7 11 12 40 25 40 4 0 13 -7 20 -15z m-80 -5 c13 -9 13 -11 0 -20 -19 -12
-90 -13 -90 -1 0 9 43 29 65 30 6 0 17 -4 25 -9z m-8357 -67 c4 -3 -2 -12 -13
-20 -29 -20 -27 -48 3 -37 50 18 181 9 305 -21 67 -16 122 -32 122 -35 0 -3
-23 -3 -52 -1 -35 2 -55 -1 -62 -10 -7 -9 -33 -14 -71 -15 -38 0 -91 -10 -145
-29 -76 -25 -85 -26 -94 -12 -9 15 -15 13 -45 -16 l-33 -32 5 35 c4 19 9 60
12 90 11 99 12 100 56 109 3 0 9 -2 12 -6z m3110 -84 c-14 -15 -27 -19 -40
-15 -17 7 -17 8 1 22 11 8 29 14 40 14 20 0 20 0 -1 -21z m358 -104 c24 -19
60 -38 79 -41 46 -9 62 -17 98 -54 17 -17 41 -30 55 -30 32 0 40 -10 20 -26
-16 -11 -16 -14 7 -34 l25 -21 -35 6 c-19 4 -54 20 -78 36 -49 33 -52 34 -52
14 0 -29 -23 -14 -101 64 -49 49 -79 87 -79 100 0 29 10 27 61 -14z m409 -85
c0 -5 -23 -10 -51 -10 -31 0 -48 4 -44 10 3 6 26 10 51 10 24 0 44 -4 44 -10z
m15 -80 c4 -6 -7 -10 -25 -10 -18 0 -29 4 -25 10 3 6 15 10 25 10 10 0 22 -4
25 -10z m1652 -73 c5 -30 3 -37 -11 -37 -9 0 -21 -12 -27 -26 -19 -51 -22 -14
-4 52 19 70 32 73 42 11z"/>
<path d="M4843 4305 c-29 -21 -29 -30 2 -60 15 -16 36 -25 55 -25 41 0 100 25
100 43 0 44 -113 74 -157 42z"/>
<path d="M5523 4268 c-30 -15 -29 -36 2 -44 37 -9 150 5 172 22 16 12 16 15 3
24 -20 13 -149 12 -177 -2z"/>
<path d="M11685 3901 c-7 -13 17 -24 40 -19 9 1 16 8 16 13 0 14 -48 19 -56 6z"/>
<path d="M6972 3658 c-14 -14 -16 -48 -2 -48 10 0 30 32 30 49 0 14 -13 14
-28 -1z"/>
<path d="M6140 2473 c0 -10 52 -63 63 -63 4 0 7 10 5 22 -2 13 -15 27 -35 35
-18 7 -33 10 -33 6z"/>
<path d="M6370 2450 c0 -10 -15 -11 -62 -6 -97 10 -57 -11 57 -30 138 -23 388
-25 435 -3 l35 16 -50 12 c-74 18 -415 27 -415 11z"/>
<path d="M7610 2163 c-31 -12 -41 -25 -29 -39 15 -19 39 -18 68 3 23 15 23 17
6 30 -20 14 -22 14 -45 6z"/>
<path d="M7485 2120 c28 -12 45 -12 45 0 0 6 -15 10 -32 9 -28 0 -30 -2 -13
-9z"/>
<path d="M9360 2331 c0 -22 25 -39 38 -27 8 8 -10 38 -26 44 -7 2 -12 -6 -12
-17z"/>
<path d="M11088 2644 c6 -11 20 -28 31 -38 18 -16 21 -17 21 -3 0 8 -14 26
-31 38 -28 20 -30 20 -21 3z"/>
<path d="M1830 2333 c0 -4 12 -21 27 -37 25 -27 27 -28 40 -10 11 14 11 21 1
30 -16 16 -68 29 -68 17z"/>
<path d="M8720 2306 c0 -46 16 -86 35 -86 19 0 19 24 -1 77 -20 52 -34 55 -34
9z"/>
<path d="M8280 2220 c0 -14 48 -35 58 -26 8 9 -26 36 -45 36 -7 0 -13 -5 -13
-10z"/>
<path d="M11264 1879 c-40 -14 -39 -31 2 -27 20 2 39 8 41 14 5 16 -18 23 -43
13z"/>
<path d="M11565 1860 c-4 -6 18 -10 59 -10 37 0 66 4 66 10 0 6 -26 10 -59 10
-33 0 -63 -4 -66 -10z"/>
<path d="M11213 1510 c16 -5 38 -5 50 0 17 7 10 9 -28 9 -43 -1 -46 -2 -22 -9z"/>
<path d="M11280 2461 c0 -12 2 -21 4 -21 2 0 12 -3 21 -6 13 -5 16 -2 13 17
-4 31 -38 39 -38 10z"/>
<path d="M8125 2360 c28 -12 45 -12 45 0 0 6 -15 10 -32 9 -28 0 -30 -2 -13
-9z"/>
<path d="M5671 6034 c-73 -7 -136 -16 -140 -20 -7 -8 293 2 331 12 15 3 25 10
22 15 -7 11 -45 10 -213 -7z"/>
<path d="M3685 5729 c-36 -4 -22 -6 50 -6 96 -1 108 2 35 9 -19 2 -57 0 -85
-3z"/>
<path d="M7253 5723 c26 -2 68 -2 95 0 26 2 4 3 -48 3 -52 0 -74 -1 -47 -3z"/>
<path d="M4320 5565 c0 -15 34 -85 41 -85 13 0 11 15 -8 55 -14 30 -33 47 -33
30z"/>
<path d="M6455 5460 c-4 -6 15 -10 50 -10 35 0 54 4 50 10 -3 6 -26 10 -50 10
-24 0 -47 -4 -50 -10z"/>
<path d="M5528 5434 c-7 -11 7 -50 21 -59 16 -9 14 28 -2 50 -8 10 -16 14 -19
9z"/>
<path d="M5717 5100 c6 -23 31 -46 40 -37 7 8 -24 57 -36 57 -5 0 -7 -9 -4
-20z"/>
<path d="M7310 5010 c-14 -5 66 -8 185 -8 119 0 199 3 185 8 -14 4 -97 8 -185
8 -88 0 -171 -4 -185 -8z"/>
<path d="M6678 5000 c-177 -9 -328 -28 -328 -41 0 -5 26 -9 58 -9 149 0 587
44 487 49 -11 1 -29 3 -40 5 -11 2 -91 0 -177 -4z"/>
<path d="M9160 4940 c0 -14 48 -35 58 -26 8 9 -26 36 -45 36 -7 0 -13 -5 -13
-10z"/>
<path d="M5824 4932 c-17 -12 -36 -74 -25 -85 22 -22 89 48 77 79 -6 15 -34
18 -52 6z"/>
<path d="M6995 4900 c-4 -6 13 -10 45 -10 32 0 49 4 45 10 -3 6 -24 10 -45 10
-21 0 -42 -4 -45 -10z"/>
<path d="M4370 4841 c-48 -10 -60 -18 -60 -42 0 -24 14 -24 113 0 77 18 95 26
85 36 -10 10 -102 14 -138 6z"/>
<path d="M7485 4840 c28 -12 45 -12 45 0 0 6 -15 10 -32 9 -28 0 -30 -2 -13
-9z"/>
<path d="M9018 4818 c-8 -21 2 -38 23 -38 22 0 23 4 9 31 -12 22 -26 25 -32 7z"/>
<path d="M5582 4789 c-86 -9 -152 -30 -152 -48 0 -15 10 -14 135 9 129 24 145
28 145 41 0 10 -10 10 -128 -2z"/>
<path d="M1045 2730 c-11 -18 5 -30 41 -30 40 0 44 12 9 28 -32 15 -42 15 -50
2z"/>
<path d="M1381 2691 c-19 -24 -44 -42 -61 -46 -16 -4 -32 -11 -36 -16 -10 -16
17 -39 45 -39 l26 0 -25 -19 -24 -19 37 -7 c62 -12 237 -1 247 14 19 31 -16
71 -62 71 -23 0 -28 4 -28 25 0 31 -41 75 -69 75 -11 0 -33 -17 -50 -39z"/>
<path d="M12579 2719 c-11 -7 -10 -12 8 -30 24 -24 57 -19 51 7 -4 21 -40 35
-59 23z"/>
<path d="M512 2639 c-17 -35 -38 -73 -46 -84 -22 -28 -32 -9 -41 72 l-7 65
-24 -51 c-38 -83 -113 -102 -127 -31 -8 35 -36 41 -55 10 -9 -16 -23 -20 -61
-20 -71 0 -98 13 -116 57 -22 53 -35 28 -35 -69 l0 -78 298 0 c286 1 537 12
550 25 12 11 -21 23 -82 30 -90 10 -96 12 -96 46 0 38 -10 37 -38 -6 -38 -59
-59 -46 -77 44 l-11 53 -32 -63z"/>
<path d="M12728 2683 c12 -2 32 -2 45 0 12 2 2 4 -23 4 -25 0 -35 -2 -22 -4z"/>
<path d="M952 2653 c-11 -4 -62 -93 -62 -108 0 -7 194 -6 268 1 l60 7 -51 26
c-31 16 -57 37 -65 54 -12 25 -17 27 -75 26 -34 0 -68 -3 -75 -6z"/>
<path d="M730 2620 c-11 -7 -12 -12 -4 -20 16 -16 59 -8 59 10 0 18 -34 24
-55 10z"/>
<path d="M20 1860 c0 -5 16 -10 36 -10 21 0 33 4 29 10 -3 6 -19 10 -36 10
-16 0 -29 -4 -29 -10z"/>
<path d="M260 1860 c0 -6 27 -10 60 -10 33 0 60 4 60 10 0 6 -27 10 -60 10
-33 0 -60 -4 -60 -10z"/>
<path d="M12323 1863 c59 -2 154 -2 210 0 56 1 8 3 -108 3 -115 0 -161 -2
-102 -3z"/>
<path d="M12109 1399 c16 -6 28 -6 35 1 7 7 -1 10 -24 9 -33 0 -34 -1 -11 -10z"/>
<path d="M1110 420 c0 -5 25 -10 55 -10 30 0 55 5 55 10 0 6 -25 10 -55 10
-30 0 -55 -4 -55 -10z"/>
<path d="M1643 423 c82 -2 212 -2 290 0 78 1 12 3 -148 3 -159 0 -223 -2 -142
-3z"/>
<path d="M2595 420 c-4 -6 9 -10 32 -10 28 0 34 3 23 10 -20 13 -47 13 -55 0z"/>
<path d="M3523 393 c87 -2 227 -2 310 0 84 1 13 3 -158 3 -170 0 -239 -2 -152
-3z"/>
<path d="M4250 390 c0 -5 14 -10 31 -10 17 0 28 4 24 10 -3 6 -17 10 -31 10
-13 0 -24 -4 -24 -10z"/>
<path d="M4483 393 c26 -2 67 -2 90 0 23 2 2 3 -48 3 -49 0 -68 -1 -42 -3z"/>
<path d="M4923 393 c42 -2 112 -2 155 0 42 1 7 3 -78 3 -85 0 -120 -2 -77 -3z"/>
<path d="M10575 322 c-32 -7 -47 -23 -35 -38 13 -14 61 -2 80 21 12 15 -12 24
-45 17z"/>
<path d="M11745 320 c-121 -4 -227 -9 -235 -10 -96 -17 799 -38 1053 -25 81 4
147 11 147 15 0 19 -612 32 -965 20z"/>
<path d="M8903 314 c3 -3 22 -6 42 -6 20 0 39 3 42 6 4 3 -15 6 -42 6 -27 0
-46 -3 -42 -6z"/>
<path d="M9208 313 c39 -2 105 -2 145 0 39 1 7 3 -73 3 -80 0 -112 -2 -72 -3z"/>
<path d="M9610 310 c0 -5 14 -10 31 -10 17 0 28 4 24 10 -3 6 -17 10 -31 10
-13 0 -24 -4 -24 -10z"/>
<path d="M10265 311 c9 -16 114 -33 158 -26 52 9 63 15 46 26 -19 12 -212 12
-204 0z"/>
<path d="M100 291 c-141 -13 -131 -37 21 -52 129 -13 5698 -23 6039 -12 230 8
223 8 -310 16 -300 4 -961 12 -1470 17 -3299 35 -4172 42 -4280 31z"/>
<path d="M11090 290 c-19 -6 -12 -8 29 -9 30 -1 52 1 50 3 -11 9 -57 13 -79 6z"/>
<path d="M6618 228 c16 -8 28 -8 45 0 19 9 17 11 -23 11 -40 0 -42 -2 -22 -11z"/>
<path d="M6803 233 c15 -2 39 -2 55 0 15 2 2 4 -28 4 -30 0 -43 -2 -27 -4z"/>
</g>
</svg>
