<?xml version="1.0" standalone="no"?>
<!DOCTYPE svg PUBLIC "-//W3C//DTD SVG 20010904//EN"
 "http://www.w3.org/TR/2001/REC-SVG-20010904/DTD/svg10.dtd">
<svg version="1.0" xmlns="http://www.w3.org/2000/svg"
 width="1280.000000pt" height="826.000000pt" viewBox="0 0 1280.000000 826.000000"
 preserveAspectRatio="xMidYMid meet">
<metadata>
Created by potrace 1.15, written by Peter Selinger 2001-2017
</metadata>
<g transform="translate(0.000000,826.000000) scale(0.100000,-0.100000)"
fill="#000000" stroke="none">
<path d="M7315 8254 c-749 -31 -1410 -140 -1855 -306 -227 -85 -296 -127 -452
-276 -252 -242 -543 -670 -823 -1211 l-100 -194 -145 -33 c-629 -140 -1222
-400 -1726 -760 -91 -65 -129 -84 -229 -120 -570 -201 -922 -391 -1185 -639
-51 -48 -89 -76 -119 -85 -54 -17 -147 -101 -201 -179 -81 -121 -160 -313
-195 -480 -22 -108 -21 -283 3 -354 18 -54 18 -65 6 -185 -21 -200 -28 -466
-15 -556 6 -44 9 -81 7 -83 -2 -2 -38 35 -80 84 -121 139 -142 232 -92 404 14
46 22 87 18 91 -4 4 -19 10 -34 13 -23 6 -29 2 -43 -25 -43 -82 -47 -118 -52
-393 l-5 -268 32 -67 c27 -55 61 -94 189 -222 265 -264 525 -448 882 -626
l117 -57 -56 -51 c-107 -99 -129 -212 -73 -374 113 -324 406 -598 896 -839
616 -302 1319 -455 2090 -457 349 0 446 9 911 84 170 28 382 61 471 75 88 13
189 31 223 40 158 41 323 117 455 209 44 31 188 110 320 175 947 468 1423 703
2905 1433 921 454 1695 833 1720 843 126 49 397 115 471 115 229 1 462 188
636 510 113 208 220 582 239 833 6 74 10 87 23 83 72 -21 143 -36 151 -31 6 3
10 25 10 48 0 81 13 176 23 170 5 -3 18 -25 29 -49 19 -45 24 -49 53 -38 39
15 53 73 70 293 20 238 17 266 -36 326 -17 19 -68 57 -113 85 l-83 49 -33 101
c-108 332 -294 536 -532 586 -40 8 -75 20 -79 25 -3 6 -11 56 -18 112 -69 595
-338 1107 -774 1473 -172 145 -316 227 -539 308 -516 187 -1280 319 -2183 376
-165 11 -920 20 -1080 14z m1045 -44 c1033 -60 1960 -238 2415 -465 309 -153
621 -459 805 -790 43 -78 34 -69 -31 30 -131 201 -328 406 -484 504 -205 128
-403 177 -765 188 -309 9 -659 -19 -1035 -83 -229 -38 -601 -112 -685 -135
-271 -75 -534 -289 -639 -521 -18 -38 -111 -379 -230 -838 -110 -425 -202
-774 -203 -775 -2 -1 -160 -41 -353 -88 -1033 -255 -1943 -523 -2067 -609 -63
-44 -19 -66 94 -48 218 35 415 80 1571 359 411 100 751 181 756 181 17 0 41
-754 50 -1575 l6 -690 28 -57 c15 -31 44 -70 63 -87 35 -31 35 -31 12 -40 -71
-26 -76 -24 -88 21 -69 263 -147 497 -215 642 -148 316 -501 706 -816 901
-244 151 -487 227 -860 266 -145 16 -480 16 -627 0 -793 -83 -1537 -447 -2079
-1015 -58 -61 -79 -79 -46 -41 85 98 272 278 373 358 313 249 856 557 1365
774 712 304 1538 550 2460 733 88 18 163 37 167 44 4 6 8 36 8 66 0 310 -611
591 -1675 769 -354 60 -697 85 -1137 86 -203 0 -368 2 -368 4 0 2 44 90 98
195 365 707 757 1216 1052 1366 78 40 269 109 425 154 420 122 928 195 1570
226 214 10 838 4 1085 -10z m1709 -722 c48 -296 197 -1606 184 -1618 -31 -28
-2693 -549 -2701 -529 -3 6 31 140 223 879 23 91 70 273 104 405 34 132 75
268 91 302 95 205 303 387 548 479 119 45 806 174 1107 209 226 25 398 33 411
18 6 -7 21 -72 33 -145z m381 152 c237 -22 397 -64 537 -141 369 -204 709
-698 837 -1218 23 -94 51 -280 43 -288 -3 -2 -20 5 -39 17 -98 57 -337 83
-571 61 -223 -21 -401 -55 -755 -143 -112 -28 -205 -49 -207 -46 -2 2 -29 233
-60 513 -78 714 -135 1153 -161 1238 -5 16 6 17 128 17 73 0 185 -5 248 -10z
m-5385 -1415 c837 -68 1658 -279 2006 -516 131 -89 209 -195 209 -287 0 -52 0
-53 -180 -87 -1361 -265 -2618 -722 -3455 -1258 -515 -330 -746 -570 -1221
-1272 -202 -299 -295 -407 -421 -491 -89 -59 -159 -77 -283 -71 -117 5 -182
23 -319 89 -153 75 -236 155 -310 298 -168 325 -186 785 -51 1258 86 298 258
621 482 905 105 132 373 399 511 507 506 397 1073 681 1697 850 241 65 329 83
460 91 179 10 652 2 875 -16z m6637 -204 c42 -11 92 -28 110 -38 33 -18 33
-18 -172 -24 -354 -11 -629 -55 -1085 -174 -93 -24 -180 -47 -192 -51 -21 -6
-23 -3 -23 30 0 21 -5 46 -11 58 -6 11 -9 22 -6 24 15 16 491 128 672 159 286
49 559 55 707 16z m24 -104 c-131 -83 -262 -259 -396 -532 -224 -453 -368
-984 -428 -1569 l-7 -70 -370 -132 c-203 -72 -371 -131 -372 -130 -1 1 9 23
22 50 35 70 52 164 75 426 37 429 51 691 57 1091 l6 397 38 11 c63 19 88 79
53 129 -11 16 -25 22 -55 22 -39 0 -39 0 -39 38 l0 39 133 36 c470 130 901
204 1197 205 85 1 101 -1 86 -11z m257 -2 c183 -39 343 -184 447 -409 73 -155
129 -387 145 -596 l5 -75 -19 70 c-110 407 -348 509 -609 261 -114 -109 -195
-231 -287 -435 -121 -270 -214 -629 -266 -1028 -21 -162 -51 -185 -237 -181
l-116 3 -58 100 c-66 117 -66 112 -38 332 39 302 102 593 185 855 158 498 395
931 582 1059 86 60 146 70 266 44z m-1689 -97 c19 -27 21 -68 4 -90 -15 -18
-516 -127 -1413 -307 -412 -83 -1282 -251 -1298 -251 -1 0 -2 21 -2 48 0 26
-3 56 -5 67 -5 18 13 23 255 67 756 141 1695 326 2205 437 124 27 228 49 232
50 4 1 14 -9 22 -21z m-16 -179 l-3 -42 -222 -54 c-164 -40 -223 -59 -223 -69
0 -27 51 -63 107 -75 60 -14 168 -4 287 25 l59 15 -6 -382 c-8 -469 -53 -1173
-88 -1371 -24 -137 -77 -219 -161 -248 -713 -246 -2096 -695 -2238 -727 -87
-20 -155 37 -186 152 -11 41 -14 159 -14 567 0 509 -9 931 -31 1433 -6 142 -8
261 -5 264 3 3 171 36 373 74 484 91 1626 321 2023 408 173 38 319 69 323 70
5 1 7 -18 5 -40z m-8293 -335 c-392 -337 -625 -625 -810 -999 -127 -256 -188
-442 -232 -703 -28 -166 -25 -511 6 -652 30 -140 64 -237 119 -344 60 -114
138 -198 238 -257 193 -114 368 -161 515 -138 117 18 198 62 312 168 90 85
155 167 293 371 155 230 351 507 365 515 6 4 -19 -35 -54 -86 -238 -347 -378
-760 -428 -1266 -7 -65 -13 -119 -15 -121 -8 -11 -428 122 -624 198 -484 187
-885 405 -1205 654 -82 64 -115 96 -128 126 -40 89 -45 288 -16 611 l13 136
34 -24 c47 -31 108 -46 161 -39 179 25 355 304 418 661 19 111 13 307 -12 376
-21 60 -76 125 -120 140 -19 7 -35 16 -35 19 0 8 110 105 182 162 147 117 413
266 658 369 114 48 378 148 390 148 3 0 -8 -11 -25 -25z m5571 -61 c13 -67 -1
-78 -143 -112 -70 -17 -344 -82 -608 -146 -696 -168 -1132 -272 -1281 -305
-170 -38 -406 -81 -411 -76 -14 14 296 122 645 225 320 95 645 183 1082 296
579 148 684 173 697 162 7 -5 15 -25 19 -44z m5081 -72 c33 -21 72 -51 87 -67
46 -50 49 -75 31 -286 -17 -214 -23 -256 -36 -264 -12 -7 -12 1 7 216 8 102
13 205 10 229 -8 61 -39 106 -110 158 -72 53 -72 53 -59 53 5 0 37 -17 70 -39z
m2 -66 c73 -68 76 -87 57 -316 -9 -106 -18 -194 -20 -196 -1 -2 -14 10 -28 25
-25 26 -26 35 -37 207 -6 99 -17 213 -24 253 -7 39 -9 72 -5 72 5 0 30 -20 57
-45z m-549 -5 c132 -35 168 -58 218 -141 123 -202 125 -632 6 -1054 -115 -409
-318 -719 -544 -833 -238 -120 -502 -43 -662 191 -49 72 -113 205 -103 215 3
4 77 9 163 12 137 4 160 8 184 25 49 37 65 81 88 245 56 407 151 748 286 1025
78 161 205 345 237 345 7 0 64 -14 127 -30z m-11259 -514 c161 -110 117 -606
-81 -919 -67 -107 -174 -187 -249 -187 -99 0 -185 88 -196 197 l-4 48 9 -44
c21 -97 66 -148 138 -158 151 -20 304 179 389 504 24 93 28 128 28 248 0 166
-11 214 -65 267 -44 44 -88 50 -148 19 -71 -37 -138 -120 -214 -266 -58 -111
-63 -105 -7 8 45 89 111 187 155 229 84 78 178 99 245 54z m4894 -122 c452
-52 726 -164 1038 -424 175 -147 368 -371 498 -580 137 -221 260 -601 378
-1173 l39 -187 -63 -45 c-139 -99 -272 -136 -338 -92 -59 39 -70 85 -87 367
-44 734 -183 1059 -525 1225 -314 153 -564 162 -879 29 -411 -172 -823 -694
-1196 -1514 -108 -238 -227 -407 -358 -512 -89 -71 -145 -100 -233 -122 -88
-22 -138 -21 -145 2 -18 56 -30 74 -53 86 -14 8 -100 21 -191 31 -243 24 -506
61 -723 100 -220 41 -538 113 -551 126 -20 18 31 379 85 599 150 621 500 1108
1089 1512 467 321 955 505 1515 573 158 19 536 19 700 -1z m-5418 -606 c-3 -7
-5 -2 -5 12 0 14 2 19 5 13 2 -7 2 -19 0 -25z m10651 -244 c30 -52 52 -97 50
-99 -1 -1 -340 -146 -753 -320 -412 -175 -1152 -488 -1644 -696 -492 -209
-898 -376 -902 -372 -4 5 -15 46 -24 93 -9 47 -32 154 -51 239 -19 84 -33 155
-32 156 3 3 81 27 403 125 616 188 1783 577 2470 824 220 79 407 144 415 145
9 1 36 -37 68 -95z m-4988 -258 c226 -47 402 -137 598 -304 148 -127 249 -338
304 -642 29 -160 32 -514 5 -674 -123 -727 -540 -1279 -1110 -1471 -168 -56
-257 -69 -457 -69 -168 0 -194 3 -283 27 -190 51 -397 172 -513 300 -211 233
-329 502 -349 797 -3 47 -8 97 -10 112 -4 23 4 33 58 71 126 90 269 270 351
441 189 392 244 501 315 626 92 159 238 379 328 492 31 40 102 119 157 176 77
79 108 104 139 113 138 37 305 39 467 5z m-3126 -31 c-20 -25 -39 -45 -42 -45
-5 0 8 17 52 68 35 40 28 23 -10 -23z m-2749 8 c-45 -116 -46 -265 -2 -354 75
-154 422 -442 778 -647 747 -430 1668 -703 2724 -808 94 -9 178 -21 188 -26
34 -18 47 -71 47 -190 0 -125 -11 -179 -42 -210 -22 -22 -47 -21 -278 3 -900
95 -2057 474 -2720 892 -283 178 -634 486 -720 632 l-35 59 0 261 c0 243 2
265 23 333 12 39 27 72 33 72 7 0 8 -7 4 -17z"/>
<path d="M5445 7710 c-186 -8 -239 -17 -324 -57 -159 -74 -552 -586 -739 -961
-34 -70 -47 -107 -50 -152 -4 -55 -2 -61 25 -89 38 -38 90 -46 208 -31 145 18
533 24 710 11 562 -41 1126 -189 1688 -442 125 -56 196 -79 247 -79 124 0 215
76 269 225 52 144 109 340 141 487 46 209 100 525 100 582 -1 115 -91 229
-215 271 -182 61 -585 147 -868 185 -339 46 -833 66 -1192 50z"/>
<path d="M9620 7445 c-505 -63 -1003 -160 -1144 -224 -208 -94 -377 -274 -431
-458 -8 -27 -55 -205 -106 -398 -88 -334 -92 -355 -93 -455 0 -78 5 -115 17
-142 40 -88 119 -141 228 -154 59 -6 344 21 634 62 463 65 1148 205 1250 256
65 33 106 68 123 107 20 46 19 269 -3 581 -31 422 -57 624 -92 697 -57 122
-157 155 -383 128z"/>
<path d="M10331 7511 c-85 -22 -123 -82 -122 -198 0 -101 87 -916 107 -1012
30 -141 71 -199 156 -222 85 -22 451 25 742 96 238 58 295 100 304 224 5 77
-9 195 -39 315 -96 394 -406 695 -804 782 -82 18 -295 27 -344 15z"/>
<path d="M4694 6190 c-45 -14 -62 -37 -42 -56 32 -33 216 -40 306 -13 38 12
43 42 10 60 -29 16 -232 22 -274 9z m221 -28 c32 -6 36 -9 21 -15 -26 -10
-223 -10 -239 0 -29 18 137 29 218 15z"/>
<path d="M4119 6180 c-394 -36 -1070 -282 -1529 -558 -498 -298 -956 -724
-1253 -1166 -121 -180 -236 -458 -285 -686 -71 -330 -82 -737 -25 -918 24 -75
79 -135 123 -135 68 0 99 66 140 298 91 514 285 981 573 1385 402 561 813 892
1572 1265 370 182 677 295 1049 389 76 19 142 40 147 47 22 36 -62 64 -231 79
-127 11 -155 11 -281 0z m415 -50 c32 -6 56 -13 54 -15 -2 -2 -59 -18 -128
-35 -369 -93 -673 -206 -1045 -390 -584 -288 -946 -540 -1253 -872 -109 -118
-249 -292 -348 -433 -278 -393 -462 -850 -559 -1385 -30 -165 -62 -250 -95
-250 -53 0 -88 49 -117 167 -21 84 -23 470 -4 603 62 433 190 753 419 1050
390 505 845 883 1401 1164 338 171 774 326 1101 392 161 32 432 34 574 4z"/>
<path d="M5102 6054 c-298 -36 -747 -151 -1096 -281 -459 -170 -924 -422
-1281 -693 -712 -540 -1175 -1283 -1378 -2210 -41 -184 -42 -201 -18 -254 48
-110 203 -114 308 -9 21 21 88 110 147 198 410 602 705 957 1036 1248 203 178
352 286 686 495 950 594 1708 878 2807 1051 142 23 272 48 288 56 23 12 29 22
29 47 0 126 -448 298 -916 353 -158 18 -457 18 -612 -1z m703 -42 c319 -50
658 -165 760 -258 40 -36 44 -58 15 -74 -11 -6 -95 -22 -188 -36 -459 -68
-866 -159 -1247 -279 -577 -182 -1092 -432 -1755 -853 -330 -210 -491 -335
-724 -562 -320 -312 -566 -619 -925 -1152 -98 -146 -161 -211 -221 -229 -52
-16 -107 -3 -142 31 -24 24 -28 36 -28 83 0 57 31 209 81 396 183 686 558
1315 1048 1756 411 369 912 668 1500 894 332 128 773 245 1076 285 66 9 134
18 150 20 83 12 476 -3 600 -22z"/>
<path d="M11985 4781 c-198 -49 -371 -345 -432 -745 -23 -152 -23 -399 0 -484
38 -139 120 -219 218 -210 213 21 429 326 505 714 23 113 25 383 5 464 -48
195 -160 294 -296 261z m61 -279 c116 -95 131 -381 35 -652 -68 -194 -203
-340 -313 -340 -47 0 -80 28 -108 92 -62 144 -16 524 87 721 42 80 109 157
155 180 44 22 117 21 144 -1z"/>
<path d="M11972 4115 c-34 -38 -49 -81 -58 -167 -10 -89 11 -138 60 -138 54 0
104 70 125 172 29 137 -51 220 -127 133z"/>
<path d="M3360 3666 c-100 -23 -179 -67 -273 -155 -201 -187 -344 -576 -309
-839 31 -231 119 -368 292 -451 98 -47 203 -55 293 -21 235 88 436 421 488
808 14 102 6 273 -15 351 -47 171 -159 282 -315 311 -66 12 -91 12 -161 -4z
m217 -45 c137 -50 210 -157 244 -356 38 -224 -53 -587 -201 -805 -56 -82 -169
-186 -237 -218 -49 -23 -71 -27 -144 -27 -78 0 -91 3 -160 37 -158 78 -248
221 -268 427 -22 210 54 484 187 677 49 71 160 181 222 219 107 67 251 85 357
46z"/>
<path d="M3309 3576 c-76 -29 -122 -59 -189 -122 -257 -242 -363 -707 -222
-968 35 -64 95 -123 163 -161 48 -27 63 -30 139 -30 108 0 159 24 250 116 113
115 193 274 251 505 33 129 34 348 1 451 -27 86 -71 147 -136 187 -42 26 -59
30 -134 33 -56 2 -100 -2 -123 -11z"/>
<path d="M5840 2733 c-276 -46 -515 -206 -683 -460 -143 -214 -213 -429 -237
-730 -26 -317 36 -547 188 -701 114 -114 251 -172 410 -172 288 0 576 163 771
437 177 248 265 543 266 893 0 172 -6 220 -41 328 -48 147 -163 280 -302 351
-95 48 -261 73 -372 54z m46 -368 c119 -35 200 -125 251 -278 23 -73 26 -98
27 -222 0 -116 -3 -155 -23 -229 -66 -252 -197 -438 -370 -524 -67 -33 -84
-37 -151 -37 -175 0 -297 118 -350 337 -69 286 44 657 257 848 118 104 241
140 359 105z"/>
<path d="M5845 1814 c-43 -22 -59 -39 -88 -93 -51 -92 -45 -211 13 -269 108
-108 286 48 267 234 -3 30 -13 66 -23 82 -34 58 -107 78 -169 46z"/>
</g>
</svg>
